<svg height="512pt" viewBox="0 0 512 512" width="512pt" xmlns="http://www.w3.org/2000/svg"><path d="m116.097656 500.515625 26.648438-79.945313h-79.945313zm0 0"/><path d="m27.429688 512h74.347656l-60.953125-91.429688h-13.394531c-15.148438 0-27.429688 12.28125-27.429688 27.429688v36.570312c0 15.148438 12.28125 27.429688 27.429688 27.429688zm0 0"/><path d="m446.234375 31.632812 1.300781.804688c2.15625 1.214844 3.730469 3.253906 4.359375 5.648438.628907 2.394531.261719 4.945312-1.023437 7.0625l-184.175782 303.359374 24.550782 40.4375c.394531.648438.960937 1.144532 1.40625 1.746094l185.875-329.625c2.480468-4.351562 8-5.898437 12.378906-3.464844l2.652344 1.460938 18.441406-31.632812-47.542969-27.429688zm0 0"/><path d="m21.101562 57.601562c4.390626-2.425781 9.914063-.859374 12.378907 3.507813l236.710937 419.660156c11.59375 19.335938 32.472656 31.1875 55.019532 31.230469h55.25l-30.472657-91.429688h-35.191406c-8.601563-.046874-17.015625-2.527343-24.273437-7.148437l-.15625-.0625c-.074219 0-.109376-.113281-.183594-.15625-5.914063-3.75-10.894532-8.800781-14.5625-14.765625l-214.484375-353.289062c-1.28125-2.117188-1.652344-4.667969-1.023438-7.0625.628907-2.394532 2.203125-4.433594 4.363281-5.648438l1.460938-.820312-18.449219-31.617188-47.488281 27.429688 18.285156 31.632812zm0 0"/><path d="m484.570312 420.570312h-13.394531l-60.953125 91.429688h74.347656c15.148438 0 27.429688-12.28125 27.429688-27.429688v-36.570312c0-15.148438-12.28125-27.429688-27.429688-27.429688zm0 0"/><path d="m449.199219 420.570312h-79.945313l26.648438 79.945313zm0 0"/><path d="m241.921875 480.558594 3.582031-6.402344-32-56.757812c-5.1875 2.0625-10.710937 3.136718-16.292968 3.171874h-35.199219l-30.472657 91.429688h55.25c22.625-.066406 43.554688-12.003906 55.132813-31.441406zm0 0"/><path d="m256 0c-59.265625 0-100.570312 24.089844-100.570312 45.714844 0 21.621094 41.304687 45.714844 100.570312 45.714844s100.570312-24.09375 100.570312-45.714844c0-21.625-41.304687-45.714844-100.570312-45.714844zm-64 54.855469c-5.050781 0-9.144531-4.089844-9.144531-9.140625 0-26.660156 65.664062-27.429688 73.144531-27.429688 5.050781 0 9.144531 4.09375 9.144531 9.144532 0 5.046874-4.09375 9.140624-9.144531 9.140624-32 0-51.308594 6.667969-54.949219 10.40625-.628906 4.515626-4.492187 7.878907-9.050781 7.878907zm64 18.289062c-5.050781 0-9.144531-4.09375-9.144531-9.144531s4.09375-9.144531 9.144531-9.144531c32 0 51.308594-6.664063 54.949219-10.402344.675781-4.746094 4.902343-8.164063 9.683593-7.832031 4.78125.332031 8.496094 4.300781 8.511719 9.09375 0 26.660156-65.664062 27.429687-73.144531 27.429687zm0 0"/><path d="m155.429688 80.164062v11.265626c0 21.621093 41.304687 45.714843 100.570312 45.714843s100.570312-24.09375 100.570312-45.714843v-11.265626c-20.863281 17.867188-57.679687 29.550782-100.570312 29.550782s-79.707031-11.683594-100.570312-29.550782zm0 0"/></svg>