<svg height="512pt" viewBox="0 0 512 512" width="512pt" xmlns="http://www.w3.org/2000/svg"><path d="m347.457031.925781c-48.953125 4.832031-94.628906 26.792969-128.972656 62.011719-35.214844 34.335938-57.175781 80.003906-62.011719 128.949219-2.828125 29.285156 2.527344 58.78125 15.472656 85.203125-.222656 1.253906-.472656 2.398437-.683593 3.808594-1.527344 10.144531-3.824219 25.207031-24.226563 48.5-11.765625-3.269532-24.382812.023437-33.050781 8.628906l-103.96875 103.996094c-1.945313 1.988281-3.632813 4.214843-5.027344 6.621093-.136719.238281-.359375.402344-.476562.65625-.121094.257813-.042969.292969-.09375.4375-7.359375 13.238281-5.078125 29.75 5.597656 40.5l12.046875 12.054688c13.324219 13.296875 34.898438 13.296875 48.222656 0l13.976563-13.976563v-.042968l90.019531-89.976563c.078125-.082031.128906-.179687.207031-.253906.074219-.078125.238281-.289063.367188-.445313 7.734375-8.128906 10.964843-19.546875 8.640625-30.523437 24.355468-21.597657 39.851562-23.773438 50.273437-25.207031 1.296875-.179688 2.292969-.390626 3.410157-.582032 7.605468 3.671875 15.507812 6.691406 23.621093 9.03125-13.785156 49.953125 3.949219 103.289063 44.902344 135.042969s97.023437 35.644531 141.96875 9.851563c.632813-.273438 1.230469-.621094 1.777344-1.039063 9.144531-5.371094 17.585937-11.855469 25.128906-19.3125 7.445313-7.523437 13.917969-15.949219 19.277344-25.078125.449219-.574219.820312-1.203125 1.109375-1.871094 28.621094-50.140625 20.285156-113.210937-20.378906-154.195312-4.449219-4.375-9.21875-8.414063-14.265626-12.085938 65.097657-75.023437 69.785157-178.242187 9.199219-238.828125-32.382812-31.503906-77.160156-46.867187-122.0625-41.875zm-209.332031 344.191407c4.515625-.007813 8.847656 1.78125 12.042969 4.976562l12.046875 12.046875c5.105468 5.144531 6.394531 12.957031 3.210937 19.464844l-48.710937-22.140625 9.386718-9.386719c3.191407-3.183594 7.519532-4.96875 12.023438-4.960937zm-1.851562 67.054687-49.6875-22.585937 17.234374-17.238282 49.691407 22.589844zm-30.128907 30.132813-49.683593-22.597657 17.238281-17.226562 49.679687 22.578125zm-30.167969 30.121093-49.644531-22.585937 17.21875-17.238282 49.679688 22.578126zm-41.8125 17.800781-12.082031-12.082031c-3.566406-3.601562-5.332031-8.609375-4.8125-13.652343l45.910157 20.820312-4.917969 4.914062c-6.660157 6.640626-17.4375 6.640626-24.097657 0zm141.253907-138.757812c-.402344-.445312-.699219-.957031-1.136719-1.390625l-12.046875-12.050781-.070313-.050782c10.332032-11.484374 18.132813-25.011718 22.894532-39.707031 4.054687 5.535157 8.503906 10.773438 13.3125 15.667969 5.246094 5.214844 10.894531 10.003906 16.894531 14.328125-14.75 4.878906-28.320313 12.78125-39.847656 23.203125zm88.617187-261.0625 24.695313 24.695312-18.054688 18.058594-24.671875-24.664062c2.773438-3.199219 5.589844-6.382813 8.636719-9.429688 3.046875-3.042968 6.195313-5.894531 9.394531-8.660156zm36.191406-24.046875 18.628907 18.628906-18.058594 18.046875-23.21875-23.21875c7.179687-5.078125 14.753906-9.578125 22.648437-13.457031zm46.308594-14.027344 2.484375 2.484375-18.101562 18.097656-13.582031-13.59375c9.460937-3.351562 19.246093-5.691406 29.199218-6.988281zm86.835938 26.589844c2.039062 2.046875 3.847656 4.265625 5.65625 6.433594l-17.664063 17.671875-18.097656-18.097656 16.769531-16.777344c4.777344 3.15625 9.242188 6.761718 13.335938 10.769531zm-38.972656 177.960937-21.28125-21.28125 18.054687-18.054687 30.722656 30.71875c-2.757812 3.191406-5.605469 6.339844-8.652343 9.386719-.605469.605468-1.246094 1.167968-1.851563 1.757812-5.601563-1.21875-11.277344-2.0625-16.992187-2.527344zm-165.914063-81.535156-18.097656 18.097656-2.492188-2.488281c1.253907-9.984375 3.5625-19.804687 6.894531-29.296875zm12.066406 12.066406 18.039063 18.046876-18.089844 18.082031-18.046875-18.03125zm138.582031-102.484374-18.097656 18.097656-18.050781-18.046875 18.101563-18.101563zm80.84375 80.894531c-1.292968 9.953125-3.636718 19.742187-6.988281 29.203125l-19.625-19.628906 18.082031-18.105469zm-38.679687-2.558594-18.03125-18.007813 18.097656-18.097656 18.03125 18.03125zm-72.253906 12.117187-18.089844 18.054688-18.097656-18.097656 18.054687-18.046875zm-6.03125-30.167968 18.054687-18.054688 18.101563 18.097656-18.089844 18.058594zm-24.125 60.289062-18.054688 18.058594-18.101562-18.101562 18.058593-18.054688zm12.066406 12.066406 18.03125 18.03125-18.054687 18.058594-18.03125-18.03125zm12.066406-12.066406 18.058594-18.054687 18.027344 18.03125-18.054688 18.054687zm30.125-30.121094 18.054688-18.089843 18.03125 18.027343-18.058594 18.058594zm18.054688-42.191406-18.097657-18.097656 18.097657-18.097656 18.097656 18.097656zm-42.230469-18.097656-18.058594 18.058594-18.046875-18.050782 18.054688-18.046874zm-30.125 30.121094-18.054688 18.050781-18.046874-18.03125 18.054687-18.066406zm-30.121094 30.125-18.058594 18.054687-18.046874-18.046875 18.058593-18.054687zm-18.058594 42.1875 18.101563 18.101562-18.074219 18.089844-18.074218-18.109375zm30.167969 30.167968 18.03125 18.027344-18.058593 18.066406-18.039063-18.03125zm45.992188 14.199219 14.226562-14.226562 9.480469 9.464843c-8.03125.839844-15.96875 2.433594-23.707031 4.761719zm85.675781-27.15625-29.261719-29.257812 18.058594-18.058594 24.660156 24.660156c-3.878906 7.898438-8.378906 15.472657-13.457031 22.65625zm.929688-119.644531 15.359374-15.359375c7.039063 13.164063 11.117188 27.703125 11.949219 42.605469zm-42.230469-42.230469-21.265625-21.265625c11.890625.679688 23.574218 3.375 34.558594 7.96875zm-155.835938 49.117188 23.226563 23.253906-18.039063 18.03125-18.523437-18.527344c3.808594-7.941406 8.269531-15.550781 13.335937-22.757812zm-6.921875 113.628906-13.257812 13.261719c-4.597656-10.964844-7.304688-22.628906-7.996094-34.5zm12.074219 12.066406 18.109375 18.089844-17.773438 17.820313c-2.195312-1.820313-4.328124-3.703126-6.339843-5.726563-4.015625-4.09375-7.625-8.5625-10.789063-13.347656zm30.183594 30.148438 19.523437 19.507812c-1.902344 2.054688-3.847656 4.078125-5.585937 6.230469-10.269531-1.867188-20.179688-5.351562-29.355469-10.316406zm191.839843 184.960937c-5.085937 5.050782-10.648437 9.601563-16.605468 13.585938l-16.589844-16.597656c-13.117188-13.761719-30.679688-22.433594-49.578125-24.476563-13.832031-1.152344-26.597656-7.871094-35.382813-18.617187-8.785156-10.742188-12.828124-24.59375-11.210937-38.375 1.941406-15.839844 11.070313-29.902344 24.746094-38.117188 15.941406-9.75 35.980469-9.828125 51.996093-.199219 14.128907 8.355469 23.445313 22.925781 25.105469 39.253907 2.53125 19.953124 11.875 38.414062 26.453125 52.269531l14.691406 14.691406c-3.992187 5.957031-8.558593 11.507813-13.625 16.582031zm22.183594-32.136718-11.261718-11.238282c-11.75-11.0625-19.335938-25.824218-21.496094-41.8125-2.144532-21.6875-14.472656-41.0625-33.203125-52.199218-21.503907-12.925782-48.410157-12.835938-69.828125.230468-18.117188 10.957032-30.183594 29.648438-32.707032 50.671875-2.164062 18.390625 3.238282 36.871094 14.96875 51.203125 11.726563 14.332032 28.773438 23.28125 47.230469 24.800782 14.855469 1.71875 28.625 8.625 38.886719 19.507812l13.0625 13.160156c-36.4375 16.390625-78.878906 11.90625-111.085938-11.738281-32.207031-23.644531-49.203124-62.792969-44.480468-102.46875 4.71875-39.675781 30.425781-73.742187 67.28125-89.167969 42.160156-17.320312 90.621094-7.054687 122.136718 25.871094 31.515626 32.925781 39.648438 81.792969 20.496094 123.152344zm-38.875-158.363282c-5.171875-2.847656-10.539062-5.328125-16.0625-7.421875 3.359375-3.585937 6.539063-7.25 9.542969-10.992187.042969 0 .101563-.050782.144531-.09375.179688-.179688.246094-.417969.410156-.613282 9.46875-11.898437 17.421876-24.929687 23.671876-38.792968.304687-.542969.554687-1.113282.742187-1.707032 6.824219-15.410156 11.210937-31.789062 13.003906-48.546874.121094-.699219.15625-1.410157.101563-2.117188 4.039062-34.890625-7.664063-69.769531-31.929688-95.160156-6.753906-6.695313-14.367187-12.457032-22.640625-17.136719-.308593-.183594-.628906-.347656-.957031-.496094-21.867188-11.796875-46.765625-16.785156-71.492188-14.328125-.707031-.050781-1.421874-.011718-2.125.113282-16.765624 1.785156-33.152343 6.171874-48.570312 13.003906-.59375.1875-1.164062.4375-1.707031.742187-13.871094 6.25-26.90625 14.203125-38.808594 23.679688-.1875.164062-.417969.222656-.597656.402343 0 0-.050781.09375-.09375.136719-5.542969 4.378907-10.839844 9.0625-15.863281 14.027344-4.996094 5.050781-9.714844 10.371094-14.132813 15.933594-.058594.050781-.066406.125-.117187.179687-9.84375 12.152344-18.054688 25.539063-24.421876 39.824219l-.105468.253906v.050781c-7.167969 15.820313-11.730469 32.695313-13.515625 49.972657-2.738281 25.273437 2.324219 50.777343 14.507812 73.089843.152344.339844.328125.671876.527344.988282 4.675781 8.246094 10.414063 15.84375 17.066406 22.597656 14.3125 14.164062 32.222657 24.148438 51.796875 28.867188-2.964844 4.9375-5.59375 10.066406-7.867187 15.359374-8.085938-2.234374-15.9375-5.238281-23.449219-8.96875-12-5.957031-22.953125-13.824218-32.425781-23.296874-27.914063-28.847657-41.460938-68.667969-36.933594-108.550782 4.492187-44.910156 24.6875-86.796875 57.03125-118.28125 31.484375-32.363281 73.382813-52.574218 118.3125-57.070312 39.878906-4.511719 79.6875 9.046875 108.527344 36.957031 54.699219 54.613281 49.160156 149-11.570313 217.394531zm0 0"/></svg>