<svg height="512pt" viewBox="-9 0 512 512" width="512pt" xmlns="http://www.w3.org/2000/svg"><path d="m123.585938 441.378906h35.3125v26.484375h-35.3125zm0 0"/><path d="m17.65625 441.378906h35.308594v26.484375h-35.308594zm0 0"/><path d="m17.65625 485.515625h35.308594v26.484375h-35.308594zm0 0"/><path d="m123.585938 485.515625h35.3125v26.484375h-35.3125zm0 0"/><path d="m70.621094 485.515625h35.308594v26.484375h-35.308594zm0 0"/><path d="m53.140625 187.402344c15.714844 36.316406 57.964844 95.082031 167.550781 95.082031 16.148438-.09375 32.195313-2.597656 47.605469-7.433594-4.585937-25.378906-13.515625-49.777343-26.394531-72.121093-30.511719.023437-60.742188-5.84375-89.027344-17.285157-34.816406-14.347656-63.679688-40.171875-81.804688-73.179687-10.957031 23.515625-17.054687 49.003906-17.929687 74.9375zm0 0"/><path d="m70.621094 441.378906h35.308594v26.484375h-35.308594zm0 0"/><path d="m221.820312 1.710938c-39.089843 13.78125-72.378906 44.078124-98.976562 90.097656-7.210938 12.535156-12.667969 26.007812-16.207031 40.03125 12.339843 13.574218 27.109375 24.71875 43.546875 32.855468 3.925781-16.257812 10.128906-31.882812 18.421875-46.40625 45.128906-78.0625 101.632812-101.683593 145.488281-106.398437-29.46875-10.863281-61.144531-14.355469-92.273438-10.179687zm0 0"/><path d="m147.570312 360.84375c28.84375 17.308594 61.707032 26.777344 95.339844 27.464844 4.765625-6.707032 8.972656-13.792969 12.585938-21.1875-11.453125 2.367187-23.113282 3.585937-34.804688 3.636718-24.722656.226563-49.351562-3.109374-73.121094-9.914062zm0 0"/><path d="m270.328125 292.882812c-16.125 4.734376-32.832031 7.179688-49.636719 7.253907-90.042968 0-138.769531-37.074219-164.804687-72.613281 5.417969 31.074218 18.355469 60.355468 37.6875 85.28125 31.390625 26.714843 74.148437 40.300781 127.117187 40.300781 14.523438-.050781 28.96875-2.082031 42.945313-6.039063 5.570312-17.492187 7.839843-35.863281 6.691406-54.183594zm0 0"/><path d="m81.214844 93.46875c3.4375 7.457031 7.46875 14.628906 12.058594 21.441406 3.679687-11.097656 8.46875-21.792968 14.289062-31.929687 12.199219-21.554688 27.445312-41.234375 45.269531-58.429688-29.40625 16.425781-54.074219 40.164063-71.617187 68.917969zm0 0"/><path d="m426.53125 268.625c7.644531-40.765625-1.941406-84.808594-28.546875-130.914062-7.277344-12.566407-16.261719-24.0625-26.695313-34.164063-17.929687 3.894531-34.976562 11.105469-50.257812 21.257813 12.199219 11.59375 22.699219 24.855468 31.191406 39.390624 45.019532 77.980469 37.355469 138.589844 19.550782 178.863282 23.949218-20.070313 42.726562-45.597656 54.757812-74.433594zm0 0"/><path d="m336.894531 173.019531c-8.15625-13.953125-18.363281-26.601562-30.277343-37.523437-19.644532 16.703125-36.300782 36.628906-49.257813 58.921875 15.316406 26.40625 25.347656 55.542969 29.539063 85.777343 5.054687 37.320313-2.882813 75.246094-22.476563 107.40625 25.777344-2.265624 50.835937-9.703124 73.675781-21.867187 23.832032-31.699219 53.679688-97.621094-1.203125-192.714844zm0 0"/><path d="m441.378906 194.207031c.035156-32.683593-8.234375-64.84375-24.027344-93.457031-8.1875-.75-16.421874-.832031-24.621093-.246094 7.792969 8.738282 14.679687 18.246094 20.550781 28.378906 12.597656 21.371094 22.035156 44.453126 28.019531 68.527344.015625-1.058594.078125-2.125.078125-3.203125zm0 0"/><path d="m166.613281 172.066406c24.273438 8.714844 49.863281 13.191406 75.652344 13.242188 15.253906-26.410156 35.425781-49.652344 59.425781-68.476563 29.832032-22.910156 66.558594-35.011719 104.164063-34.320312-14.921875-21.140625-33.890625-39.113281-55.804688-52.878907-39.320312-4.597656-111.351562 2.683594-166.117187 97.484376-8.007813 14.023437-13.847656 29.179687-17.320313 44.949218zm0 0"/><path d="m282.484375 485.515625h35.308594v26.484375h-35.308594zm0 0"/><path d="m388.414062 441.378906h35.308594v26.484375h-35.308594zm0 0"/><path d="m388.414062 485.515625h35.308594v26.484375h-35.308594zm0 0"/><path d="m335.449219 441.378906h35.308593v26.484375h-35.308593zm0 0"/><path d="m441.378906 485.515625h35.3125v26.484375h-35.3125zm0 0"/><path d="m347.859375 380.566406-.21875.113282c-30.765625 16.660156-65.199219 25.386718-100.1875 25.390624h-.28125c-51.539063.027344-101.304687-18.816406-139.90625-52.964843h-107.265625v70.617187h494.34375v-70.617187h-107.261719c-12 10.601562-25.15625 19.8125-39.222656 27.460937zm-241.929687 16.675782h-70.621094c-4.875 0-8.824219-3.953126-8.824219-8.828126s3.949219-8.828124 8.824219-8.828124h70.621094c4.875 0 8.828124 3.953124 8.828124 8.828124s-3.953124 8.828126-8.828124 8.828126zm353.105468-17.65625c4.875 0 8.828125 3.953124 8.828125 8.828124s-3.953125 8.828126-8.828125 8.828126h-70.621094c-4.875 0-8.828124-3.953126-8.828124-8.828126s3.953124-8.828124 8.828124-8.828124zm0 0"/><path d="m441.378906 441.378906h35.3125v26.484375h-35.3125zm0 0"/><path d="m229.515625 485.515625h35.3125v26.484375h-35.3125zm0 0"/><path d="m176.550781 485.515625h35.3125v26.484375h-35.3125zm0 0"/><path d="m335.449219 485.515625h35.308593v26.484375h-35.308593zm0 0"/><path d="m176.550781 441.378906h35.3125v26.484375h-35.3125zm0 0"/><path d="m229.515625 441.378906h35.3125v26.484375h-35.3125zm0 0"/><path d="m282.484375 441.378906h35.308594v26.484375h-35.308594zm0 0"/></svg>